name processed_emg_signals
nRows=60
nColumns=7
 
endheader
time	RGLTMED	RRF	RADDLONG	RBF	RTA	RGM
2.0939999999999435	0.0093219455619893	0.0299991022767138	0.0103118852897597	0.3004114208212093	0.9992345387908552	0.0632710378688815
2.0949999999999434	0.0092952147681747	0.0298990587924234	0.0102552591867818	0.3006783724788471	0.9998549569671132	0.0629443221743487
2.0959999999999432	0.009268925132954	0.0297938078994144	0.010199551454301	0.3007698195905536	1.0	0.0625934522457088
2.096999999999943	0.0092430679271275	0.0296834975959954	0.0101447851580168	0.3006854353788402	0.9996709115874788	0.0622189546503028
2.097999999999943	0.0092176346847029	0.0295682823080918	0.010090982837767	0.3004252019044404	0.9988697570301934	0.0618213954059349
2.098999999999943	0.0091926172518368	0.029448322666126	0.0100381664923463	0.2999894048939895	0.9975994148318528	0.0614013784327157
2.099999999999943	0.0091680078324989	0.0293237852720566	0.0099863575630613	0.2993786279496407	0.9958635663964034	0.0609595439381526
2.1009999999999427	0.0091437990307271	0.0291948424570398	0.0099355769162046	0.2985937461811656	0.9936666838785922	0.0604965667414951
2.1019999999999426	0.009119983889364	0.0290616720301499	0.0098858448246244	0.297635919300684	0.991014016251772	0.0600131545433457
2.1029999999999425	0.0090965559251785	0.0289244570185659	0.0098371809485658	0.2965065842195884	0.9879115736607396	0.0595100461465222
2.1039999999999424	0.0090735091603116	0.028783385399575	0.0097896043159511	0.2952074471865804	0.9843661101292815	0.0589880096340861
2.1049999999999423	0.0090508381499979	0.0286386498246774	0.0097431333022642	0.2937404755050041	0.9803851046943364	0.0584478405103538
2.105999999999942	0.0090285380065487	0.0284904473360356	0.0096977856102112	0.2921078888668145	0.9759767410423932	0.0578903598105886
2.106999999999942	0.0090066044196088	0.0283389790754895	0.0096535782493133	0.2903121503395894	0.9711498857281522	0.0573164121849275
2.107999999999942	0.0089850336727228	0.0281844499863788	0.009610527515593	0.2883559570420215	0.9659140650593044	0.056726863961928
2.108999999999942	0.0089638226562746	0.0280270685084627	0.009568648971506	0.2862422305423135	0.9602794407344036	0.0561226011969266
2.1099999999999417	0.0089429688768865	0.0278670462662763	0.0095279574262681	0.2839741070128446	0.9542567843235544	0.0555045277102027
2.1109999999999416	0.0089224704633818	0.0277045977513208	0.0094884669167175	0.2815549271733891	0.9478574506838536	0.0548735631197311
2.1119999999999415	0.0089023261694335	0.0275399399985142	0.0094501906888444	0.2789882260540668	0.9410933504026976	0.0542306408731205
2.1129999999999414	0.0088825353730218	0.0273732922573608	0.0094131411800909	0.2762777226080969	0.93397692136223	0.0535767062831384
2.1139999999999413	0.0088630980728256	0.0272048756583481	0.0093773300025142	0.2734273092033386	0.92652109951787	0.0529127145710487
2.114999999999941	0.0088440148816809	0.0270349128751188	0.0093427679268834	0.2704410410205288	0.918739288983186	0.0522396289217977
2.115999999999941	0.0088252870172428	0.0268636277830092	0.0093094648677689	0.2673231253850416	0.9106453315121492	0.0515584185549098
2.116999999999941	0.0088069162900186	0.0266912451145363	0.0092774298696698	0.2640779110579165	0.9022534754680746	0.0508700568147676
2.117999999999941	0.008788905088935	0.0265179901123768	0.0092466710942298	0.2607098775108081	0.8935783443665909	0.0501755192837829
2.1189999999999407	0.0087712563646146	0.0263440881803465	0.009217195808577	0.2572236242084456	0.8846349050779664	0.0494757819218038
2.1199999999999406	0.0087539736105203	0.0261697645328346	0.0091890103748298	0.2536238599211279	0.8754384357718543	0.0487718192349406
2.1209999999999405	0.0087370608421279	0.0259952438431543	0.0091621202407917	0.2499153920887608	0.8660044936849698	0.0480646024768447
2.1219999999999404	0.008720522574278	0.0258207498913028	0.0091365299318556	0.2461031162569296	0.8563488827894443	0.0473550978853222
2.1229999999999403	0.0087043637968628	0.0256465052117266	0.0091122430441251	0.2421920056045289	0.8464876214367645	0.046644264957011
2.12399999999994	0.0086885899490133	0.0254727307417866	0.0090892622387512	0.2381871005815405	0.8364369100492826	0.0459330547626932
2.12499999999994	0.0086732068919649	0.025299645471703	0.0090675892374772	0.234093498674673	0.8262130989283203	0.0452224083056512
2.12599999999994	0.0086582208807979	0.0251274660967936	0.0090472248193808	0.2299163443177064	0.8158326562449433	0.0445132549253143
2.12699999999994	0.008643638535254	0.024956406672833	0.009028168818806	0.2256608189625249	0.8053121362766196	0.0438065107482907
2.1279999999999397	0.0086294668098287	0.0247866782753659	0.0090104201244844	0.2213321313259462	0.7946681479501778	0.0431030771887452
2.1289999999999396	0.0086157129633206	0.0246184886638167	0.0089939766798648	0.2169355078265739	0.7839173237487077	0.042403839499968
2.1299999999999395	0.0086023845280035	0.0244520419512378	0.0089788354846673	0.212476183225014	0.773076289037321	0.041709665378859
2.1309999999999394	0.0085894892785704	0.0242875382805241	0.0089649925976788	0.2079593914799115	0.7621616318600105	0.0410214036249401
2.1319999999999393	0.0085770352009772	0.0241251735079003	0.0089524431407867	0.2033903568313927	0.7511898732572017	0.0403398828553646
2.132999999999939	0.0085650304613052	0.023965138894453	0.0089411813042402	0.1987742851226303	0.7401774381509595	0.0396659102772693
2.133999999999939	0.0085534833747389	0.0238076208064395	0.0089312003531112	0.1941163553694041	0.7291406268422265	0.0390002705186707
2.134999999999939	0.0085424023747497	0.0236528004250645	0.0089224926349313	0.1894217115867075	0.718095587161978	0.0383437245189876
2.135999999999939	0.008531795982554	0.0235008534663657	0.0089150495884746	0.1846954548806373	0.7070582873157494	0.0376970084801335
2.1369999999999387	0.0085216727769048	0.0233519499117938	0.0089088617536637	0.1799426358130319	0.6960444894585693	0.0370608328789976
2.1379999999999386	0.0085120413642534	0.0232062537500226	0.0089039187825831	0.175168247045574	0.6850697240349718	0.036435881541992
2.1389999999999385	0.0085029103493056	0.0230639227304527	0.0089002094515899	0.1703772162693558	0.6741492649165135	0.0358228107821967
2.1399999999999384	0.0084942883059848	0.0229251081288214	0.0088977216745143	0.1655743994252227	0.6632981053670526	0.0352222485995119
2.1409999999999383	0.0084861837488105	0.0227899545252706	0.0088964425169268	0.1607645742195386	0.6525309348639317	0.0346347939440966
2.141999999999938	0.0084786051047007	0.0226585995952173	0.0088963582114419	0.155952433939356	0.6418621168010996	0.0340610160432822
2.142999999999938	0.0084715606852047	0.0225311739133691	0.0088974541740124	0.1511425815703189	0.6313056670981865	0.0335014537920697
2.143999999999938	0.008465058659167	0.0224078007712794	0.0088997150211667	0.1463395242199679	0.6208752337375825	0.0329566152072349
2.144999999999938	0.0084591070258259	0.0222885960088589	0.0089031245881476	0.1415476678484769	0.6105840772496471	0.0324269769449843
2.1459999999999377	0.0084537135883429	0.0221736678602786	0.0089076659479021	0.1367713123082244	0.6004450521642891	0.0319129838819971
2.1469999999999376	0.0084488859277649	0.0220631168146719	0.0089133214308862	0.1320146466929927	0.5904705894453206	0.0314150487595906
2.1479999999999375	0.0084446313774188	0.0219570354920064	0.0089200726456345	0.1272817449970087	0.5806726799222124	0.0309335518906673
2.1489999999999374	0.0084409569977379	0.0218555085344584	0.0089279005000426	0.1225765620834733	0.5710628587320946	0.0304688409290412
2.1499999999999373	0.0084378695515134	0.0217586125135804	0.0089367852233017	0.1179029299617041	0.5616521907830959	0.0300212307007102
2.150999999999937	0.0084353754795501	0.0216664158535078	0.0089467063884103	0.1132645543715109	0.5524512572483931	0.0295910030965883
2.151999999999937	0.0084334808766991	0.0215789787703893	0.0089576429351796	0.1086650116729664	0.5434701430986923	0.0291784070261843
2.152999999999937	0.0084321914682318	0.021496353228176	0.0089695731936505	0.1041077460392904	0.534718425679257	0.0287836584316572
